<svg width="94" height="93" viewBox="0 0 94 93" fill="none" xmlns="http://www.w3.org/2000/svg">
<path d="M56.0436 24.9008L86.8798 37.6736C90.024 38.9761 91.5168 42.5815 90.2144 45.7257L73.626 85.7737C72.3236 88.9179 68.7186 90.4117 65.5744 89.1095L34.7381 76.3367C31.5938 75.0343 30.1003 71.4286 31.4027 68.2842L47.9911 28.2362C49.2935 25.0919 52.8992 23.5984 56.0436 24.9008Z" fill="white"/>
<path d="M56.0436 24.9008L86.8798 37.6736C90.024 38.9761 91.5168 42.5815 90.2144 45.7257L73.626 85.7737C72.3236 88.9179 68.7186 90.4117 65.5744 89.1095L34.7381 76.3367C31.5938 75.0343 30.1003 71.4286 31.4027 68.2842L47.9911 28.2362C49.2935 25.0919 52.8992 23.5984 56.0436 24.9008Z" stroke="#AEA9B1" stroke-width="0.830939"/>
<path d="M62.9029 64.2211L55.3164 61.0786" stroke="white" stroke-width="1.24641" stroke-linecap="round" stroke-linejoin="round"/>
<path d="M64.7045 59.8893L61.4531 58.5425" stroke="white" stroke-width="1.24641" stroke-linecap="round" stroke-linejoin="round"/>
<path d="M69.1234 62.9883C67.4304 67.0755 66.5839 69.1192 64.7089 69.83C62.8338 70.5411 60.6624 69.6417 56.3197 67.8429L55.4823 67.496C51.9478 66.0319 50.1805 65.2999 49.3114 63.9268C49.0624 63.5334 48.8719 63.1103 48.7458 62.6703C48.3055 61.1347 48.9945 59.4713 50.3724 56.1449L51.5151 53.386C52.8453 50.1746 53.5104 48.5689 54.5499 47.4969C56.2209 45.7736 58.6225 44.8631 61.1316 45.0015C62.6924 45.0875 64.3984 45.7942 67.8106 47.2076C69.7606 48.0153 70.7354 48.4191 71.4007 49.0149C72.4705 49.9728 73.073 51.3111 73.0519 52.6827C73.0387 53.5358 72.6587 54.4533 71.8985 56.2885L69.1234 62.9883Z" stroke="white" stroke-width="1.24641" stroke-linejoin="round"/>
<path d="M51.5967 53.189C52.4231 51.1939 54.7106 50.2463 56.7058 51.0728C57.4274 51.3717 58.2257 51.8505 59.0051 51.9531C59.6977 52.0443 60.3862 51.7591 60.8115 51.2049C61.29 50.5812 61.516 49.6781 61.8149 48.9566C62.6413 46.9613 64.9287 46.0139 66.9239 46.8403" stroke="white" stroke-width="1.24641" stroke-linecap="round" stroke-linejoin="round"/>
<path d="M6.73622 37.6747L37.5725 24.9019C40.7168 23.5997 44.3217 25.0935 45.6241 28.2377L62.2125 68.2857C63.5149 71.4299 62.0221 75.0353 58.878 76.3378L28.0417 89.1106C24.8974 90.413 21.2916 88.9195 19.9892 85.7752L3.40079 45.7272C2.09837 42.5828 3.59191 38.9771 6.73622 37.6747Z" fill="white"/>
<path d="M6.73622 37.6747L37.5725 24.9019C40.7168 23.5997 44.3217 25.0935 45.6241 28.2377L62.2125 68.2857C63.5149 71.4299 62.0221 75.0353 58.878 76.3378L28.0417 89.1106C24.8974 90.413 21.2916 88.9195 19.9892 85.7752L3.40079 45.7272C2.09837 42.5828 3.59191 38.9771 6.73622 37.6747Z" stroke="#AEA9B1" stroke-width="0.830939"/>
<path d="M21.6914 56.2227L40.1159 48.591" stroke="white" stroke-width="1.03857" stroke-linejoin="round"/>
<path d="M33.6317 45.2906L32.8394 51.6059" stroke="white" stroke-width="1.03857" stroke-linejoin="round"/>
<path d="M26.8466 48.1012L26.0542 54.4164" stroke="white" stroke-width="1.03857" stroke-linejoin="round"/>
<path d="M23.5961 60.8228C21.7001 56.2457 20.7522 53.9571 21.5123 51.9764C22.2724 49.9956 24.4438 49.0962 28.7865 47.2974C33.1291 45.4987 35.3005 44.5992 37.2387 45.4623C39.1767 46.3255 40.1246 48.614 42.0206 53.1912C43.9164 57.7682 44.8644 60.0568 44.1044 62.0375C43.3441 64.0182 41.1727 64.9176 36.8301 66.7164C32.4874 68.5152 30.316 69.4146 28.378 68.5516C26.4399 67.6885 25.4919 65.3999 23.5961 60.8228Z" stroke="white" stroke-width="1.03857"/>
<path d="M36.8943 58.7795C37.0127 59.4809 36.506 60.221 35.4925 61.7015C34.5128 63.1326 34.023 63.8481 33.4092 63.8963C33.1555 63.9162 32.8946 63.8625 32.6515 63.7402C32.0635 63.4448 31.6938 62.5521 30.9544 60.7671C30.215 58.9822 29.8453 58.0896 30.0521 57.4647C30.1376 57.2065 30.2841 56.984 30.4775 56.8186C30.9456 56.4187 31.7979 56.5784 33.5026 56.8975C35.2661 57.2277 36.1478 57.3929 36.56 57.9725C36.7301 58.2118 36.8454 58.49 36.8943 58.7795Z" stroke="white" stroke-width="1.03857" stroke-linejoin="round"/>
<path d="M27.5 23.5059H67.5C71.6421 23.5059 75 26.8637 75 31.0059V83.0059C75 87.148 71.6421 90.5059 67.5 90.5059H27.5C23.3579 90.5059 20 87.148 20 83.0059V31.0059C20 26.8637 23.3579 23.5059 27.5 23.5059Z" fill="white"/>
<path d="M27.5 23.5059H67.5C71.6421 23.5059 75 26.8637 75 31.0059V83.0059C75 87.148 71.6421 90.5059 67.5 90.5059H27.5C23.3579 90.5059 20 87.148 20 83.0059V31.0059C20 26.8637 23.3579 23.5059 27.5 23.5059Z" stroke="#AEA9B1"/>
<path d="M47.5 67.0049C53.0228 67.0049 57.5 62.5277 57.5 57.0049C57.5 51.482 53.0228 47.0049 47.5 47.0049C41.9772 47.0049 37.5 51.482 37.5 57.0049C37.5 62.5277 41.9772 67.0049 47.5 67.0049Z" stroke="black" stroke-width="1.5"/>
<path d="M47.5 53.0049V61.0049M47.5 53.0049C46.7998 53.0049 45.4915 54.9992 45 55.5049M47.5 53.0049C48.2002 53.0049 49.5085 54.9992 50 55.5049" stroke="black" stroke-width="1.5" stroke-linecap="round" stroke-linejoin="round"/>
</svg>
