<svg width="32" height="24" viewBox="0 0 32 24" fill="none" xmlns="http://www.w3.org/2000/svg">
<path d="M12 12C9.63908 13.2863 7.55495 15.0773 6.00813 17.9919C4.46132 15.0773 2.36092 13.27 0 12C2.42605 10.6323 4.51017 8.64587 6.00813 6.00815C7.5061 8.64587 9.59023 10.6323 12 12Z" fill="white"/>
<path d="M7 0.459076H15.8099C21.6485 0.459076 26.3817 5.19225 26.3817 11.0309H17.5718C11.7332 11.0309 7 6.29774 7 0.459076Z" fill="white"/>
<path d="M7 23.5409H15.8099C21.6485 23.5409 26.3817 18.8078 26.3817 12.9691H17.5718C11.7332 12.9691 7 17.7023 7 23.5409Z" fill="white"/>
</svg>
