<svg width="128" height="128" viewBox="0 0 128 128" fill="none" xmlns="http://www.w3.org/2000/svg">
<path d="M12.9473 66.5986C20.1086 68.3757 30.6168 71.9913 36.2461 78.7031C40.4137 83.6725 43.1566 91.8302 44.9053 99.1963H12.9473V66.5986ZM57.333 81.9023C66.3232 70.1276 88.1167 65.9844 116.001 67.2188C114.524 91.9342 95.5845 99.1963 54.208 99.1963H51.2627C52.826 93.3798 54.8665 87.0048 57.333 81.9023ZM45.1895 29.8037C43.4589 37.4751 40.6467 46.2775 36.2461 51.5244C30.6168 58.236 20.1085 61.8491 12.9473 63.626V29.8037H45.1895ZM54.208 29.8037C93.7555 29.8037 114.349 36.0813 115.991 60.6709C95.454 64.3939 66.4203 63.9815 57.0205 46.6836V46.793C54.1882 41.7884 52.1028 35.487 50.625 29.8037H54.208Z" fill="black"/>
</svg>
