<svg width="32" height="24" viewBox="0 0 32 24" fill="none" xmlns="http://www.w3.org/2000/svg">
<path d="M12 11.9997C9.63908 13.286 7.55495 15.077 6.00813 17.9915C4.46132 15.077 2.36092 13.2697 0 11.9997C2.42605 10.632 4.51017 8.64553 6.00813 6.00781C7.5061 8.64553 9.59023 10.632 12 11.9997Z" fill="black"/>
<path d="M7 0.458984H15.8099C21.6485 0.458984 26.3817 5.19216 26.3817 11.0308H17.5718C11.7332 11.0308 7 6.29765 7 0.458984Z" fill="black"/>
<path d="M7 23.541H15.8099C21.6485 23.541 26.3817 18.8078 26.3817 12.9692H17.5718C11.7332 12.9692 7 17.7024 7 23.541Z" fill="black"/>
</svg>
